<svg width="95" height="95" viewBox="0 0 95 95" fill="none" xmlns="http://www.w3.org/2000/svg">
<path d="M0 20C0 8.9543 8.95431 0 20 0H75C86.0457 0 95 8.95431 95 20V75C95 86.0457 86.0457 95 75 95H20C8.9543 95 0 86.0457 0 75V20Z" fill="#FED8FF"/>
<path d="M58.9032 27H35.1554C33.6497 27 32.2716 27.8455 31.5895 29.1878L27.0971 38.0278C26.4227 39.3549 26.541 40.9468 27.4043 42.1596L44.0041 65.4809C45.5869 67.7046 48.8828 67.7249 50.4929 65.5209L67.4438 42.3169C68.3879 41.0246 68.4708 39.294 67.6546 37.9174L62.3439 28.96C61.6235 27.745 60.3157 27 58.9032 27Z" stroke="#E074E3" stroke-width="2"/>
<path d="M27 40H68" stroke="#E074E3" stroke-width="2"/>
<path d="M37.085 40.5479L45.3346 64.3395C45.964 66.1546 48.5414 66.1248 49.1285 64.2956L56.7516 40.5479M47.2974 27L58.5293 28.4485C59.7976 28.6121 60.5887 29.9075 60.1549 31.1105L56.7516 40.5479L47.2974 27ZM47.2974 27L35.4546 28.4637C34.1911 28.6199 33.3932 29.9011 33.8103 31.1039L37.085 40.5479L47.2974 27ZM47.2974 27L37.085 40.5479L47.2974 27ZM47.2974 27L56.7516 40.5479L47.2974 27Z" stroke="#E074E3" stroke-width="2"/>
</svg>
