<svg width="184" height="60" viewBox="0 0 184 60" fill="none" xmlns="http://www.w3.org/2000/svg">
<g clip-path="url(#clip0_1_342)">
<path d="M45 0H14C6.26801 0 0 6.26801 0 14V46C0 53.732 6.26801 60 14 60H45C52.732 60 59 53.732 59 46V14C59 6.26801 52.732 0 45 0Z" fill="white"/>
<path d="M45 0H14C6.26801 0 0 6.26801 0 14V46C0 53.732 6.26801 60 14 60H45C52.732 60 59 53.732 59 46V14C59 6.26801 52.732 0 45 0Z" stroke="#29A0F5"/>
<path d="M47.2452 34.4257L21.4506 14.6013C18.3826 12.2435 13.9841 12.8191 11.6262 15.8871C9.26833 18.955 9.84398 23.3536 12.912 25.7114L38.7066 45.5358C41.7746 47.8936 46.1731 47.318 48.531 44.25C50.8888 41.1821 50.3132 36.7836 47.2452 34.4257Z" fill="#0083E1"/>
<path d="M43 13H17C13.134 13 10 16.134 10 20C10 23.866 13.134 27 17 27H43C46.866 27 50 23.866 50 20C50 16.134 46.866 13 43 13Z" fill="#29A0F5"/>
<path d="M43 33H17C13.134 33 10 36.134 10 40C10 43.866 13.134 47 17 47H43C46.866 47 50 43.866 50 40C50 36.134 46.866 33 43 33Z" fill="#29A0F5"/>
<path d="M84.8931 35.062C84.8931 37.3179 84.0785 39.0952 82.4492 40.3941C80.8314 41.6929 78.5755 42.3423 75.6816 42.3423C73.0156 42.3423 70.6572 41.8409 68.6064 40.8383V35.9165C70.2926 36.6685 71.7168 37.1983 72.8789 37.5059C74.0524 37.8135 75.1234 37.9673 76.0918 37.9673C77.2539 37.9673 78.1426 37.7451 78.7578 37.3008C79.3844 36.8565 79.6978 36.1956 79.6978 35.3184C79.6978 34.8285 79.561 34.3955 79.2876 34.0195C79.0142 33.6322 78.6097 33.2618 78.0742 32.9086C77.5501 32.5554 76.4735 31.9914 74.8442 31.2167C73.3175 30.4989 72.1725 29.8096 71.4092 29.1488C70.6458 28.488 70.0363 27.719 69.5806 26.8417C69.1248 25.9644 68.897 24.9391 68.897 23.7656C68.897 21.5554 69.6432 19.8179 71.1357 18.5532C72.6396 17.2886 74.7132 16.6562 77.3564 16.6562C78.6553 16.6562 79.8914 16.8101 81.0649 17.1177C82.2498 17.4253 83.486 17.8582 84.7734 18.4165L83.0645 22.5352C81.7314 21.9883 80.6263 21.6066 79.749 21.3901C78.8831 21.1737 78.0286 21.0653 77.1855 21.0653C76.1829 21.0653 75.4139 21.299 74.8784 21.7661C74.3429 22.2332 74.0752 22.8428 74.0752 23.5947C74.0752 24.0619 74.1834 24.4719 74.3999 24.8251C74.6164 25.1669 74.9582 25.5031 75.4253 25.8335C75.9038 26.1525 77.026 26.7336 78.792 27.5767C81.1276 28.6932 82.7284 29.8153 83.5942 30.9433C84.4601 32.0598 84.8931 33.4328 84.8931 35.062ZM99.5049 42.3423C97.2604 42.3423 95.5002 41.5276 94.2241 39.8983H93.9507C94.133 41.4934 94.2241 42.4164 94.2241 42.667V50.4086H89.0117V22.8941H93.25L93.9849 25.372H94.2241C95.4432 23.4807 97.249 22.5352 99.6416 22.5352C101.897 22.5352 103.663 23.4067 104.939 25.1499C106.215 26.8931 106.854 29.3141 106.854 32.4131C106.854 34.4525 106.552 36.2241 105.948 37.728C105.355 39.2319 104.507 40.377 103.401 41.1631C102.296 41.9492 100.997 42.3423 99.5049 42.3423ZM97.9668 26.705C96.6794 26.705 95.7394 27.1039 95.147 27.9014C94.5545 28.6874 94.2469 29.992 94.2241 31.815V32.3788C94.2241 34.4296 94.526 35.8994 95.1299 36.7881C95.7451 37.6768 96.7135 38.1211 98.0352 38.1211C100.371 38.1211 101.539 36.1956 101.539 32.3447C101.539 30.4649 101.248 29.0577 100.667 28.1234C100.097 27.1778 99.1973 26.705 97.9668 26.705ZM123.294 42.0005L122.286 39.4028H122.149C121.272 40.508 120.366 41.2769 119.432 41.7099C118.509 42.1314 117.301 42.3423 115.809 42.3423C113.974 42.3423 112.527 41.8182 111.468 40.77C110.42 39.7219 109.896 38.2292 109.896 36.2924C109.896 34.2644 110.602 32.772 112.015 31.815C113.439 30.8465 115.581 30.311 118.44 30.2085L121.756 30.1059V29.2686C121.756 27.3317 120.765 26.3633 118.782 26.3633C117.256 26.3633 115.461 26.8247 113.399 27.7476L111.673 24.2271C113.872 23.0763 116.31 22.5009 118.987 22.5009C121.551 22.5009 123.516 23.0593 124.883 24.1758C126.25 25.2923 126.934 26.9899 126.934 29.2686V42.0005H123.294ZM121.756 33.1479L119.739 33.2163C118.224 33.2619 117.096 33.5352 116.355 34.0365C115.615 34.5378 115.245 35.3012 115.245 36.3266C115.245 37.7963 116.088 38.5312 117.774 38.5312C118.982 38.5312 119.944 38.1838 120.662 37.4888C121.391 36.7938 121.756 35.8708 121.756 34.7201V33.1479ZM144.451 42.0005L143.443 39.4028H143.306C142.429 40.508 141.523 41.2769 140.589 41.7099C139.666 42.1314 138.458 42.3423 136.966 42.3423C135.132 42.3423 133.685 41.8182 132.625 40.77C131.577 39.7219 131.053 38.2292 131.053 36.2924C131.053 34.2644 131.759 32.772 133.172 31.815C134.596 30.8465 136.738 30.311 139.598 30.2085L142.913 30.1059V29.2686C142.913 27.3317 141.922 26.3633 139.939 26.3633C138.413 26.3633 136.618 26.8247 134.556 27.7476L132.83 24.2271C135.029 23.0763 137.467 22.5009 140.145 22.5009C142.708 22.5009 144.673 23.0593 146.041 24.1758C147.408 25.2923 148.091 26.9899 148.091 29.2686V42.0005H144.451ZM142.913 33.1479L140.896 33.2163C139.381 33.2619 138.253 33.5352 137.513 34.0365C136.772 34.5378 136.402 35.3012 136.402 36.3266C136.402 37.7963 137.245 38.5312 138.931 38.5312C140.139 38.5312 141.102 38.1838 141.819 37.4888C142.549 36.7938 142.913 35.8708 142.913 34.7201V33.1479ZM161.524 38.1894C162.435 38.1894 163.529 37.9901 164.805 37.5913V41.4706C163.506 42.0517 161.911 42.3423 160.02 42.3423C157.935 42.3423 156.414 41.8182 155.457 40.77C154.511 39.7105 154.039 38.1268 154.039 36.0191V26.8076H151.543V24.603L154.415 22.8598L155.918 18.8267H159.251V22.8941H164.6V26.8076H159.251V36.0191C159.251 36.7596 159.456 37.3064 159.866 37.6596C160.288 38.0128 160.84 38.1894 161.524 38.1894ZM181.98 42.0005H166.89V38.9243L175.743 26.8759H167.42V22.8941H181.673V26.2778L173.06 38.0186H181.98V42.0005Z" fill="white"/>
</g>
<defs>
<clipPath id="clip0_1_342">
<rect width="184" height="60" fill="white"/>
</clipPath>
</defs>
</svg>
