<svg width="46" height="44" viewBox="0 0 46 44" fill="none" xmlns="http://www.w3.org/2000/svg">
<path d="M0.333252 9.99999C0.333252 4.47715 4.81041 0 10.3333 0H35.6028C41.1257 0 45.6028 4.47715 45.6028 10V33.2512C45.6028 38.774 41.1257 43.2512 35.6028 43.2512H10.3333C4.81041 43.2512 0.333252 38.774 0.333252 33.2512V9.99999Z" fill="#AEEA7F"/>
<path d="M15.8518 21.3877H19.8167V26.5693C19.1741 26.779 18.568 26.9248 17.9983 27.0068C17.4332 27.0934 16.8544 27.1367 16.262 27.1367C14.7535 27.1367 13.6005 26.6947 12.803 25.8105C12.01 24.9219 11.6135 23.6481 11.6135 21.9893C11.6135 20.376 12.0738 19.1182 12.9944 18.2158C13.9195 17.3135 15.2001 16.8623 16.8362 16.8623C17.8616 16.8623 18.8505 17.0674 19.803 17.4775L19.0989 19.1729C18.3697 18.8083 17.6109 18.626 16.8225 18.626C15.9065 18.626 15.1728 18.9336 14.6213 19.5488C14.0699 20.1641 13.7942 20.9912 13.7942 22.0303C13.7942 23.1149 14.0152 23.9443 14.4573 24.5186C14.9039 25.0882 15.551 25.373 16.3987 25.373C16.8407 25.373 17.2896 25.3275 17.7454 25.2363V23.1514H15.8518V21.3877ZM22.2024 27V17.0059H24.3215V27H22.2024ZM28.9221 27H26.8372V17.0059H32.5657V18.7422H28.9221V21.3193H32.3127V23.0488H28.9221V27Z" fill="#577E39"/>
</svg>
