<svg width="46" height="44" viewBox="0 0 46 44" fill="none" xmlns="http://www.w3.org/2000/svg">
<path d="M0 9.99999C0 4.47715 4.47715 0 10 0H35.2696C40.7924 0 45.2696 4.47715 45.2696 10V33.2512C45.2696 38.774 40.7924 43.2512 35.2696 43.2512H10C4.47716 43.2512 0 38.774 0 33.2512V9.99999Z" fill="#FFD772"/>
<path d="M30 14H15C13.3431 14 12 15.3431 12 17V26C12 27.6569 13.3431 29 15 29H30C31.6569 29 33 27.6569 33 26V17C33 15.3431 31.6569 14 30 14Z" fill="#C59419"/>
<path d="M19.9198 22.1884L17.3292 25.3684C16.797 26.0217 17.2618 27 18.1045 27H30C30.5523 27 31 26.5523 31 26V25.2857V23.3854C31 23.1373 30.9078 22.8982 30.7414 22.7143L28.1655 19.8685C27.7528 19.4126 27.0304 19.4336 26.6449 19.9127L23.9757 23.2302C23.5903 23.7092 22.8679 23.7302 22.4552 23.2744L21.4365 22.1489C21.0255 21.6948 20.3066 21.7136 19.9198 22.1884Z" fill="#FFD772"/>
<path d="M18 20C19.1046 20 20 19.1046 20 18C20 16.8954 19.1046 16 18 16C16.8954 16 16 16.8954 16 18C16 19.1046 16.8954 20 18 20Z" fill="#FFD772"/>
</svg>
