<svg width="150" height="38" viewBox="0 0 150 38" fill="none" xmlns="http://www.w3.org/2000/svg">
<path d="M17.6161 37.5C16.7161 37.5 15.8261 37.24 14.9461 36.72C14.0861 36.22 12.9861 35.44 11.6461 34.38C10.6461 33.58 9.78612 32.93 9.06612 32.43C8.36612 31.95 7.59612 31.54 6.75612 31.2C5.93612 30.86 5.09612 30.69 4.23612 30.69C3.93612 30.69 3.70612 30.7 3.54612 30.72L8.01612 9.93C6.67612 10.47 5.63612 11.3 4.89612 12.42C4.17612 13.52 3.81612 14.87 3.81612 16.47C3.81612 17.21 3.88612 17.73 4.02612 18.03C4.16612 18.31 4.23612 18.47 4.23612 18.51C3.15612 18.51 2.34612 18.29 1.80612 17.85C1.28612 17.39 1.02612 16.64 1.02612 15.6C1.02612 14.32 1.54612 13.08 2.58612 11.88C3.64612 10.66 4.99612 9.68 6.63612 8.94C8.27612 8.18 9.91612 7.8 11.5561 7.8C11.8361 7.8 12.2361 7.82 12.7561 7.86L8.13612 29.4C8.69612 29.54 9.26612 29.74 9.84612 30C10.4461 30.28 11.1661 30.65 12.0061 31.11C13.3061 31.81 14.4161 32.34 15.3361 32.7C16.2561 33.08 17.2161 33.27 18.2161 33.27C19.1161 33.27 19.9561 33.11 20.7361 32.79C20.5761 34.25 20.2161 35.4 19.6561 36.24C19.1161 37.08 18.4361 37.5 17.6161 37.5ZM16.5933 30.12C15.1133 30.12 13.9433 29.74 13.0833 28.98C12.2233 28.22 11.7933 27.02 11.7933 25.38C11.7933 24.02 12.0733 22.51 12.6333 20.85C13.1933 19.19 14.0933 17.76 15.3333 16.56C16.5733 15.34 18.1333 14.73 20.0133 14.73C22.5733 14.73 23.8533 16.33 23.8533 19.53V19.56C23.9133 19.58 24.0233 19.59 24.1833 19.59C24.8433 19.59 25.6033 19.42 26.4633 19.08C27.3233 18.72 28.1033 18.29 28.8033 17.79L29.0733 18.6C28.4933 19.22 27.7333 19.75 26.7933 20.19C25.8733 20.61 24.8633 20.91 23.7633 21.09C23.6033 22.91 23.1933 24.5 22.5333 25.86C21.8733 27.22 21.0233 28.27 19.9833 29.01C18.9433 29.75 17.8133 30.12 16.5933 30.12ZM17.7933 27.42C18.2733 27.42 18.7533 27.15 19.2333 26.61C19.7133 26.05 20.1333 25.3 20.4933 24.36C20.8533 23.4 21.1133 22.34 21.2733 21.18C20.7333 21.06 20.4633 20.64 20.4633 19.92C20.4633 19.1 20.7733 18.56 21.3933 18.3C21.3533 17.64 21.2533 17.19 21.0933 16.95C20.9333 16.69 20.6533 16.56 20.2533 16.56C19.5933 16.56 18.9533 17.04 18.3333 18C17.7133 18.96 17.2133 20.11 16.8333 21.45C16.4533 22.79 16.2633 23.97 16.2633 24.99C16.2633 25.95 16.3733 26.6 16.5933 26.94C16.8133 27.26 17.2133 27.42 17.7933 27.42ZM27.4369 15H31.7569L31.3669 16.86C32.0469 16.26 32.6569 15.8 33.1969 15.48C33.7569 15.16 34.3569 15 34.9969 15C35.6369 15 36.1369 15.22 36.4969 15.66C36.8769 16.1 37.0669 16.63 37.0669 17.25C37.0669 17.83 36.8769 18.34 36.4969 18.78C36.1169 19.22 35.5869 19.44 34.9069 19.44C34.4669 19.44 34.1669 19.34 34.0069 19.14C33.8669 18.92 33.7569 18.61 33.6769 18.21C33.6169 17.95 33.5569 17.76 33.4969 17.64C33.4369 17.52 33.3269 17.46 33.1669 17.46C32.7469 17.46 32.3869 17.55 32.0869 17.73C31.8069 17.89 31.4369 18.18 30.9769 18.6L28.5769 30H24.2569L27.4369 15ZM40.9662 30.18C39.4862 30.18 38.3362 29.8 37.5162 29.04C36.6962 28.26 36.2862 27.05 36.2862 25.41C36.2862 24.03 36.5562 22.51 37.0962 20.85C37.6362 19.19 38.5162 17.76 39.7362 16.56C40.9562 15.34 42.5062 14.73 44.3862 14.73C46.5862 14.73 47.6862 15.69 47.6862 17.61C47.6862 18.73 47.3662 19.76 46.7262 20.7C46.0862 21.64 45.2362 22.4 44.1762 22.98C43.1162 23.54 41.9862 23.86 40.7862 23.94C40.7462 24.54 40.7262 24.94 40.7262 25.14C40.7262 26.12 40.8962 26.79 41.2362 27.15C41.5762 27.49 42.1262 27.66 42.8862 27.66C43.9662 27.66 44.8862 27.41 45.6462 26.91C46.4262 26.41 47.2762 25.65 48.1962 24.63H49.2162C46.9962 28.33 44.2462 30.18 40.9662 30.18ZM41.0262 22.5C41.7662 22.46 42.4662 22.2 43.1262 21.72C43.8062 21.24 44.3462 20.63 44.7462 19.89C45.1662 19.15 45.3762 18.37 45.3762 17.55C45.3762 16.73 45.1262 16.32 44.6262 16.32C43.9062 16.32 43.1962 16.95 42.4962 18.21C41.8162 19.47 41.3262 20.9 41.0262 22.5ZM65.9199 30.18C64.8599 30.18 64.0899 29.86 63.6099 29.22C63.1299 28.58 62.8899 27.77 62.8899 26.79C62.8899 26.37 62.9399 25.9 63.0399 25.38C63.1399 24.84 63.2399 24.32 63.3399 23.82C63.4599 23.32 63.5399 23 63.5799 22.86C63.7399 22.16 63.8899 21.47 64.0299 20.79C64.1699 20.11 64.2399 19.56 64.2399 19.14C64.2399 18.12 63.8799 17.61 63.1599 17.61C62.6399 17.61 62.1799 17.87 61.7799 18.39C61.3799 18.89 61.0599 19.55 60.8199 20.37L58.7799 30H54.4599L56.6499 19.65C56.7099 19.41 56.7399 19.16 56.7399 18.9C56.7399 18.02 56.4399 17.58 55.8399 17.58C55.2799 17.58 54.7899 17.84 54.3699 18.36C53.9699 18.86 53.6499 19.53 53.4099 20.37L51.3699 30H47.0499L50.2299 15H54.5499L54.2199 16.56C55.2399 15.42 56.4599 14.85 57.8799 14.85C59.6399 14.85 60.6699 15.71 60.9699 17.43C62.0699 15.73 63.4599 14.88 65.1399 14.88C66.1599 14.88 66.9699 15.16 67.5699 15.72C68.1699 16.28 68.4699 17.13 68.4699 18.27C68.4699 18.85 68.3999 19.5 68.2599 20.22C68.1199 20.92 67.9199 21.78 67.6599 22.8C67.4999 23.42 67.3499 24.03 67.2099 24.63C67.0899 25.21 67.0299 25.67 67.0299 26.01C67.0299 26.41 67.1199 26.72 67.2999 26.94C67.4799 27.16 67.7899 27.27 68.2299 27.27C68.7099 27.27 69.0399 27.21 69.2199 27.09C69.0999 28.11 68.7299 28.88 68.1099 29.4C67.5099 29.92 66.7799 30.18 65.9199 30.18ZM82.8989 9.63C81.5589 10.17 80.5189 11 79.7789 12.12C79.0589 13.22 78.6989 14.57 78.6989 16.17C78.6989 16.91 78.7689 17.43 78.9089 17.73C79.0489 18.01 79.1189 18.17 79.1189 18.21C78.0389 18.21 77.2289 17.99 76.6889 17.55C76.1689 17.09 75.9089 16.34 75.9089 15.3C75.9089 14.02 76.4289 12.78 77.4689 11.58C78.5289 10.36 79.8789 9.38 81.5189 8.64C83.1589 7.88 84.7989 7.5 86.4389 7.5C86.7189 7.5 87.1189 7.52 87.6389 7.56L82.8689 30H78.5489L82.8989 9.63ZM89.2589 13.89H93.5789L93.0989 16.14C94.0989 15.28 95.2689 14.85 96.6089 14.85C97.7289 14.85 98.6189 15.22 99.2789 15.96C99.9389 16.7 100.269 17.91 100.269 19.59C100.269 21.17 100.039 22.77 99.5789 24.39C99.1189 25.99 98.3389 27.36 97.2389 28.5C96.1389 29.62 94.6889 30.18 92.8889 30.18C91.6089 30.18 90.7589 29.82 90.3389 29.1L88.7789 36.42L84.2489 37.5L89.2589 13.89ZM91.9589 27.57C92.9189 27.57 93.7089 27.12 94.3289 26.22C94.9689 25.32 95.4289 24.25 95.7089 23.01C96.0089 21.75 96.1589 20.58 96.1589 19.5C96.1589 17.84 95.6589 17.01 94.6589 17.01C94.2989 17.01 93.9289 17.14 93.5489 17.4C93.1889 17.66 92.8689 18.02 92.5889 18.48L90.8189 26.88C90.9789 27.34 91.3589 27.57 91.9589 27.57ZM104.432 30.18C103.472 30.18 102.662 30 102.002 29.64C101.342 29.26 100.852 28.78 100.532 28.2C100.212 27.6 100.052 26.98 100.052 26.34C100.052 25.68 100.212 25.11 100.532 24.63C100.832 24.13 101.202 23.77 101.642 23.55C102.422 22.15 103.102 20.74 103.682 19.32C104.262 17.88 104.812 16.33 105.332 14.67L109.772 14.07C109.872 16.63 110.042 19.4 110.282 22.38C110.382 23.58 110.432 24.45 110.432 24.99C110.432 25.45 110.392 25.83 110.312 26.13C111.252 25.59 111.972 25.09 112.472 24.63H113.732C112.452 26.11 110.922 27.36 109.142 28.38C108.562 29 107.842 29.46 106.982 29.76C106.142 30.04 105.292 30.18 104.432 30.18ZM103.472 27.81C104.212 27.81 104.832 27.59 105.332 27.15C105.832 26.71 106.082 26 106.082 25.02C106.082 24.42 106.022 23.58 105.902 22.5C105.702 20.22 105.572 18.69 105.512 17.91C105.032 19.49 104.222 21.38 103.082 23.58C103.542 23.82 103.772 24.17 103.772 24.63C103.772 25.01 103.642 25.35 103.382 25.65C103.142 25.95 102.832 26.1 102.452 26.1C102.032 26.1 101.762 25.97 101.642 25.71C101.642 26.43 101.782 26.96 102.062 27.3C102.362 27.64 102.832 27.81 103.472 27.81ZM115.437 30.18C114.477 30.18 113.697 29.88 113.097 29.28C112.517 28.68 112.227 27.78 112.227 26.58C112.227 26.08 112.307 25.43 112.467 24.63L114.507 15H118.827L116.667 25.2C116.607 25.5 116.577 25.78 116.577 26.04C116.577 26.86 116.877 27.27 117.477 27.27C118.037 27.27 118.517 27.04 118.917 26.58C119.317 26.1 119.637 25.45 119.877 24.63L121.917 15H126.237L124.077 25.2C123.997 25.5 123.957 25.82 123.957 26.16C123.957 26.56 124.047 26.85 124.227 27.03C124.427 27.19 124.747 27.27 125.187 27.27C125.747 27.27 126.227 27.03 126.627 26.55C127.047 26.07 127.377 25.43 127.617 24.63H128.877C128.137 26.79 127.217 28.26 126.117 29.04C125.037 29.8 123.947 30.18 122.847 30.18C121.987 30.18 121.297 29.94 120.777 29.46C120.277 28.98 119.977 28.27 119.877 27.33C119.197 28.43 118.477 29.18 117.717 29.58C116.977 29.98 116.217 30.18 115.437 30.18ZM145.344 30.18C144.284 30.18 143.514 29.86 143.034 29.22C142.554 28.58 142.314 27.77 142.314 26.79C142.314 26.37 142.364 25.9 142.464 25.38C142.564 24.84 142.664 24.32 142.764 23.82C142.884 23.32 142.964 23 143.004 22.86C143.164 22.16 143.314 21.47 143.454 20.79C143.594 20.11 143.664 19.56 143.664 19.14C143.664 18.12 143.304 17.61 142.584 17.61C142.064 17.61 141.604 17.87 141.204 18.39C140.804 18.89 140.484 19.55 140.244 20.37L138.204 30H133.884L136.074 19.65C136.134 19.41 136.164 19.16 136.164 18.9C136.164 18.02 135.864 17.58 135.264 17.58C134.704 17.58 134.214 17.84 133.794 18.36C133.394 18.86 133.074 19.53 132.834 20.37L130.794 30H126.474L129.654 15H133.974L133.644 16.56C134.664 15.42 135.884 14.85 137.304 14.85C139.064 14.85 140.094 15.71 140.394 17.43C141.494 15.73 142.884 14.88 144.564 14.88C145.584 14.88 146.394 15.16 146.994 15.72C147.594 16.28 147.894 17.13 147.894 18.27C147.894 18.85 147.824 19.5 147.684 20.22C147.544 20.92 147.344 21.78 147.084 22.8C146.924 23.42 146.774 24.03 146.634 24.63C146.514 25.21 146.454 25.67 146.454 26.01C146.454 26.41 146.544 26.72 146.724 26.94C146.904 27.16 147.214 27.27 147.654 27.27C148.134 27.27 148.464 27.21 148.644 27.09C148.524 28.11 148.154 28.88 147.534 29.4C146.934 29.92 146.204 30.18 145.344 30.18Z" fill="#292F36"/>
</svg>
