<svg width="47" height="44" viewBox="0 0 47 44" fill="none" xmlns="http://www.w3.org/2000/svg">
<path d="M0.806641 9.99999C0.806641 4.47715 5.28379 0 10.8066 0H36.0762C41.5991 0 46.0762 4.47715 46.0762 10V33.2512C46.0762 38.774 41.5991 43.2512 36.0762 43.2512H10.8066C5.2838 43.2512 0.806641 38.774 0.806641 33.2512V9.99999Z" fill="#F68DFF"/>
<path d="M26.7974 10.0186C26.9489 10.0479 27.0915 10.1114 27.2139 10.204C27.3367 10.2956 27.4361 10.4141 27.5043 10.5499C27.5725 10.6858 27.6075 10.8353 27.6067 10.9868V14.2837L19.4261 16.2529L19.418 16.2552C19.1323 16.3258 18.9479 16.5504 18.9479 16.8271V24.8716C18.9456 25.2506 18.8225 25.6194 18.5959 25.9262C18.3693 26.2331 18.0505 26.4626 17.6843 26.5826L16.8401 26.8839L16.8254 26.8888C16.6043 26.9621 16.3726 26.9996 16.1392 27C15.6932 26.9993 15.2589 26.8604 14.898 26.6031C14.6178 26.4064 14.39 26.1464 14.2337 25.845C14.0774 25.5436 13.9973 25.2098 14.0001 24.8716C14.0001 24.0402 14.4979 23.3393 15.2668 23.087L17.2769 22.404L17.2815 22.4021C17.5424 22.3159 17.711 22.0951 17.711 21.8393V13.2635C17.7083 12.9918 17.7976 12.7269 17.965 12.5105C18.1324 12.294 18.3682 12.1383 18.6356 12.0679L26.3403 10.0347C26.4893 9.99473 26.6458 9.9892 26.7974 10.0186Z" fill="#C038CC"/>
<path d="M32.2505 16.0186C32.4021 16.0479 32.5447 16.1114 32.667 16.204C32.7898 16.2956 32.8893 16.4141 32.9574 16.5499C33.0256 16.6858 33.0606 16.8353 33.0598 16.9868V20.2837L24.8792 22.2529L24.8711 22.2552C24.5854 22.3258 24.401 22.5504 24.401 22.8271V30.8716C24.3987 31.2506 24.2756 31.6194 24.049 31.9262C23.8224 32.2331 23.5036 32.4626 23.1374 32.5826L22.2932 32.8839L22.2785 32.8888C22.0574 32.9621 21.8257 32.9996 21.5924 33C21.1464 32.9993 20.712 32.8604 20.3512 32.6031C20.0709 32.4064 19.8431 32.1464 19.6868 31.845C19.5305 31.5436 19.4504 31.2098 19.4532 30.8716C19.4532 30.0402 19.9511 29.3393 20.7199 29.087L22.73 28.404L22.7346 28.4021C22.9955 28.3159 23.1641 28.0951 23.1641 27.8393V19.2635C23.1614 18.9918 23.2507 18.7269 23.4181 18.5105C23.5855 18.294 23.8214 18.1383 24.0887 18.0679L31.7934 16.0347C31.9425 15.9947 32.0989 15.9892 32.2505 16.0186Z" fill="#C038CC"/>
</svg>
