<svg width="145" height="45" viewBox="0 0 145 45" fill="none" xmlns="http://www.w3.org/2000/svg">
<path d="M20.2413 8.82887L21.3118 8.60048C21.5831 8.60048 21.8115 8.65758 21.9685 8.77178C22.1255 8.88597 22.2112 9.00017 22.2112 9.10009C22.2112 9.20001 22.1826 9.35703 22.1398 9.5426C22.097 9.72817 21.6973 11.6409 20.955 15.2524C20.2127 18.8638 19.6703 21.5617 19.3277 23.3318C20.9835 21.0764 22.9249 18.3071 25.1374 15.0097C27.35 11.7123 28.649 9.52833 29.0201 8.44346C29.1343 8.10087 29.2913 7.84393 29.4769 7.65836C29.6625 7.47279 29.8338 7.3586 29.9765 7.33005C30.1192 7.3015 30.3476 7.27295 30.6474 7.27295C30.9472 7.27295 31.304 7.34432 31.718 7.4728C32.132 7.60127 32.3461 7.81538 32.3461 8.12942C32.3461 8.7004 31.4896 10.3705 29.7909 13.1112C28.0923 15.8519 26.1367 18.7639 23.9384 21.8472C21.7401 24.9305 19.913 27.3715 18.4427 29.17C18.1857 29.4841 17.8574 29.6554 17.4863 29.6554C17.1151 29.6554 16.7155 29.584 16.3015 29.4555C15.8875 29.3271 15.6734 29.0987 15.6734 28.7561C15.6734 27.6855 16.6155 22.5181 18.4998 13.2825C16.8867 15.3666 14.9311 18.2786 12.6329 22.0042C10.2348 25.8584 8.87874 28.2565 8.5647 29.17C8.39341 29.7268 8.19357 30.0551 7.96517 30.1407C7.80815 30.2121 7.63685 30.2406 7.46556 30.2406L6.30932 30.3691C6.08093 30.3691 5.88108 30.312 5.68124 30.1835C5.49567 30.0551 5.39575 29.9266 5.39575 29.7839C5.39575 29.3984 5.93819 28.2279 7.00878 26.2866C8.07937 24.3453 9.3498 22.2326 10.7915 19.9487C12.2333 17.6648 13.7321 15.4522 15.3023 13.2968C16.8725 11.1413 18.0858 9.68535 18.9423 8.95735C19.1136 8.80033 19.3134 8.72895 19.5418 8.72895L20.2413 8.82887Z" fill="#292F36"/>
<path d="M37.3993 18.507C38.1416 18.507 38.5127 18.764 38.5127 19.2636C38.5127 19.5348 38.4556 19.7346 38.3272 19.8631C38.1987 19.9916 37.9275 20.4055 37.5135 21.1335C37.0996 21.8473 36.6428 22.7608 36.1432 23.8885C35.6435 25.0019 35.3152 25.9583 35.1725 26.7434C35.144 26.8433 35.1297 26.9718 35.1297 27.1574C35.1297 27.6998 35.2724 27.9568 35.5722 27.9568C35.872 27.9568 36.2145 27.814 36.6142 27.5428C37.0139 27.2573 37.3708 26.9718 37.6848 26.6435C37.9988 26.3295 38.2986 26.0011 38.5984 25.6728C38.8981 25.3445 39.0695 25.1447 39.1266 25.1019C39.1837 25.059 39.2693 25.0305 39.3835 25.0305C39.5691 25.0305 39.6833 25.1732 39.7261 25.4587C39.7689 25.7442 39.7832 26.0297 39.7832 26.3437C39.7832 26.6578 39.7546 26.8576 39.6975 26.9718C39.412 27.5285 38.7982 28.1994 37.8276 28.9845C36.8712 29.7696 35.9862 30.155 35.2011 30.155C34.416 30.155 33.8307 29.9124 33.4738 29.4413C33.117 28.9702 32.9171 28.4278 32.9171 27.8568C32.9171 27.2716 33.0171 26.772 33.2169 26.3295C32.4032 27.3858 31.4754 28.2708 30.4333 29.0131C29.377 29.7411 28.5348 30.1122 27.8639 30.1122C27.193 30.1122 26.6649 29.9124 26.2366 29.5127C25.6942 29.0131 25.4373 28.3279 25.4373 27.4429C25.4373 26.5579 25.6371 25.6728 26.0368 24.7735C26.4365 23.8885 26.9504 23.0606 27.5927 22.3326C28.2351 21.5903 28.9488 20.9194 29.7196 20.3199C31.3326 19.0494 32.8315 18.4214 34.2018 18.4214C34.73 18.4214 35.1582 18.507 35.4865 18.6783C35.8149 18.8496 36.029 19.078 36.1146 19.3349C36.343 18.9781 36.5429 18.764 36.7142 18.664C36.8426 18.5498 37.0853 18.507 37.3993 18.507ZM35.458 20.1343C33.7879 20.1343 32.0606 21.0622 30.2763 22.9178C29.6482 23.5887 29.063 24.3739 28.5206 25.3017C27.9781 26.2295 27.7212 26.8576 27.7212 27.2002C27.7212 27.5428 27.8211 27.7141 28.021 27.7141C28.2922 27.7141 29.0487 27.1717 30.3049 26.1011C31.561 25.0305 32.389 24.2311 32.7887 23.7172C33.2454 23.1462 34.1305 21.9472 35.458 20.1343Z" fill="#292F36"/>
<path d="M48.505 10.7705L49.1045 10.9132C49.1901 10.9132 49.2758 10.956 49.3329 11.0417C49.4043 11.1273 49.4328 11.213 49.4328 11.2843C49.4328 11.3557 49.3329 11.5698 49.1188 11.9124C48.9047 12.255 48.6763 12.6404 48.3908 13.0687C48.1053 13.4969 47.9625 13.7396 47.9483 13.7824C48.7048 13.7253 49.2472 13.6967 49.5613 13.6967C49.8753 13.6967 50.0894 13.7253 50.2179 13.7681C50.3321 13.8109 50.4748 13.9394 50.6176 14.1393C50.7746 14.3391 50.9031 14.4961 51.0316 14.596C51.16 14.696 51.2171 14.853 51.2171 15.0528C51.2171 15.2527 51.0887 15.4382 50.846 15.5667C50.6033 15.7095 50.3321 15.7951 50.0466 15.8237C47.777 16.052 46.5351 16.1662 46.3067 16.1805C45.5216 17.3939 44.4082 19.2781 42.995 21.8332C41.5818 24.3884 40.8253 26.0014 40.7396 26.6437C40.6968 26.9435 40.6825 27.1719 40.6825 27.3575C40.6825 27.7429 40.8824 27.9285 41.2821 27.9285C41.6817 27.9285 42.1242 27.7714 42.6096 27.4717C43.0949 27.1576 43.5517 26.8293 43.9514 26.4725C45.0505 25.5018 45.6358 25.0022 45.7072 25.0022C45.9641 25.0022 46.0926 25.4447 46.0926 26.3154C46.0926 26.7865 45.8785 27.2147 45.4359 27.6001C44.451 28.4423 43.6231 29.0847 42.9522 29.5129C42.2813 29.9412 41.6104 30.1553 40.9252 30.1553C40.7824 30.1553 40.6397 30.141 40.5112 30.1125C39.7261 29.9697 39.1551 29.6842 38.7983 29.256C38.4271 28.8278 38.2559 28.2568 38.2559 27.543C38.2559 26.8293 38.47 25.9443 38.8982 24.9165C39.3264 23.8888 39.8546 22.7896 40.497 21.6334C41.5533 19.7349 42.6096 17.9648 43.6516 16.309L43.0949 16.3804C41.9672 16.5088 41.3106 16.5659 41.125 16.5659H40.9966C40.7111 16.5659 40.4399 16.5088 40.1829 16.3946C39.926 16.2804 39.7832 16.1377 39.7832 15.9807C39.7832 15.8094 39.8546 15.6524 39.9974 15.4953C40.1401 15.3383 40.2257 15.2098 40.2543 15.1242C40.3257 14.9101 40.5826 14.6674 41.0251 14.4105C41.4676 14.1535 41.7959 14.0108 42.0243 13.9965C42.2527 13.9822 42.4668 13.968 42.681 13.9537C42.8951 13.9394 43.1235 13.9394 43.3804 13.9251C43.6374 13.9109 43.8372 13.9109 43.9799 13.8966L45.2932 13.8395C46.1068 12.6119 46.6778 11.8125 46.9776 11.4699C47.2916 11.1131 47.4629 10.9275 47.5058 10.8989C47.5486 10.8704 47.6485 10.8418 47.8055 10.8418L48.505 10.7705Z" fill="#292F36"/>
<path d="M57.2836 25.0304C57.4692 25.0304 57.5834 25.1732 57.6262 25.4587C57.669 25.7442 57.6833 26.0296 57.6833 26.3437C57.6833 26.6577 57.6547 26.8576 57.5976 26.9718C57.3121 27.5142 56.6984 28.1851 55.742 28.9702C54.7856 29.7553 53.872 30.155 53.0155 30.155C52.4874 30.155 52.002 29.998 51.5452 29.6839C51.1027 29.3699 50.8743 28.8132 50.8743 28.0281C50.8743 27.243 51.0885 26.4579 51.5024 25.7013C49.0758 28.7418 47.1915 30.2549 45.8069 30.2549C45.2644 30.2549 44.8219 30.0551 44.4794 29.6697C44.1368 29.2842 43.9797 28.8846 43.9797 28.4563C43.9797 28.0424 44.0368 27.6141 44.151 27.1716C44.2652 26.7291 44.3937 26.3294 44.5222 25.9726C44.6506 25.6157 44.8505 25.1875 45.1074 24.6736C45.3644 24.1597 45.5642 23.7885 45.6784 23.5459C45.7926 23.3032 46.0067 22.9606 46.2922 22.4896C46.5777 22.0185 46.9346 21.3761 47.3913 20.5768C47.8481 19.7774 48.2193 19.1779 48.519 18.7925C48.8188 18.407 49.1043 18.2072 49.3898 18.2072C49.6753 18.2072 49.9179 18.3214 50.1321 18.5498C50.3462 18.7782 50.4604 18.978 50.4604 19.1208C50.4604 19.2635 50.1321 19.9201 49.4754 21.0907C47.5484 24.5879 46.5777 26.6149 46.5777 27.2002C46.5777 27.3429 46.6348 27.4143 46.7347 27.4143C47.2058 27.4143 48.3763 26.4008 50.232 24.3738C52.0877 22.3468 53.1725 21.0478 53.4723 20.4769C53.7721 19.9059 54.0433 19.4205 54.3288 19.0351C54.6 18.6497 54.8141 18.407 54.9569 18.3214C55.3708 18.0502 55.9132 17.9074 56.5842 17.8789C56.6983 17.8789 56.7697 17.8789 56.8268 17.8932C56.8839 17.9074 56.9553 17.9931 57.0267 18.1358C57.098 18.2786 57.1409 18.407 57.1409 18.507C57.0552 18.7782 56.6698 19.5062 55.9703 20.691C55.2852 21.8758 54.8998 22.5467 54.8284 22.6894C53.6722 25.0733 53.1012 26.6292 53.1012 27.3429C53.1012 27.7569 53.2582 27.9567 53.5722 27.9567C54.1432 27.8853 54.8284 27.4286 55.6278 26.6006C55.9275 26.3009 56.213 25.9868 56.4985 25.6728C56.784 25.3587 56.9696 25.1732 57.0267 25.1304C57.098 25.059 57.1837 25.0304 57.2836 25.0304Z" fill="#292F36"/>
<path d="M61.5232 21.6475C63.8214 19.0352 65.7913 17.722 67.4044 17.722C67.804 17.722 68.1324 17.8362 68.3893 18.0788C68.6462 18.3215 68.7747 18.6213 68.7747 19.0067C68.7747 19.3921 68.5035 20.0202 67.9611 20.9195C67.4186 21.8045 66.919 22.561 66.4622 23.1749C66.2196 23.4889 65.9483 23.6459 65.6343 23.6459C65.3345 23.6459 65.0919 23.5317 64.9206 23.3033C64.7493 23.0749 64.6637 22.818 64.6637 22.5182C64.6637 21.8473 65.0205 21.0765 65.7485 20.2343L65.72 20.2058C65.3916 20.2343 64.6065 20.8767 63.3218 22.1043C62.0514 23.3461 60.9665 24.4596 60.0672 25.4302C59.1822 26.4152 58.2115 27.6 57.1552 29.0131C56.8555 29.4271 56.5985 29.6412 56.3844 29.6412C56.1703 29.6412 55.8991 29.5698 55.5565 29.4414C55.2139 29.3129 54.9998 29.213 54.9284 29.1559C54.857 29.0988 54.8142 28.9989 54.8142 28.8561C54.8142 28.7276 54.857 28.5564 54.9284 28.3851C54.9998 28.1995 55.1568 27.9425 55.3566 27.6142C55.5565 27.2859 55.8848 26.7435 56.313 26.0012C56.7413 25.2589 57.3979 24.1313 58.2972 22.6324C59.1965 21.1336 59.7247 20.22 59.9102 19.906C60.2814 19.2636 60.5811 18.7926 60.8238 18.5071C61.2663 17.9504 62.0086 17.6792 63.0506 17.6792C63.279 17.6792 63.4075 17.8219 63.4075 18.1217C63.4075 18.5785 62.9792 19.4492 62.1371 20.7054L61.5232 21.6475Z" fill="#292F36"/>
<path d="M77.2681 18.6785C77.2681 19.3209 77.0112 19.8919 76.483 20.3772C75.9549 20.8625 75.3696 21.1052 74.6987 21.1052C74.4846 21.1052 74.3419 21.0481 74.2705 20.9482C74.1991 20.8483 74.1705 20.7055 74.1705 20.5485C74.1705 20.3915 74.1848 20.2202 74.2277 20.0631C73.8708 20.1773 73.4854 20.3629 73.0571 20.6056C72.6289 20.8482 72.1007 21.2051 71.4727 21.6904C70.8446 22.1758 70.5306 22.5184 70.5306 22.761C70.5306 22.8324 70.6447 22.8752 70.8731 22.8752C71.1015 22.8752 71.4584 22.7896 71.9295 22.6326C72.4005 22.4755 72.7431 22.3899 72.9287 22.3899C73.1142 22.3899 73.2427 22.4042 73.2998 22.4184C73.4283 22.4898 73.5568 22.6326 73.7138 22.861C73.8565 23.0894 73.9279 23.2749 73.9279 23.4034C73.9279 23.5319 73.7994 23.7032 73.5425 23.9173C73.2855 24.1314 73 24.2884 72.686 24.4026C72.3577 24.5168 72.1436 24.6025 72.0437 24.6595C69.9881 25.8158 68.9603 26.6009 68.9603 27.0291C68.9603 27.7857 69.6027 28.1711 70.9017 28.1711C71.7296 28.1711 72.5718 27.9141 73.3997 27.386C74.1135 26.9435 74.7558 26.4867 75.3268 26.0156C75.8978 25.5588 76.2546 25.2734 76.4117 25.1592C76.5687 25.045 76.6829 25.0021 76.7543 25.0021C77.0112 25.0021 77.1397 25.2876 77.1397 25.8586C77.1397 26.4296 77.1111 26.8007 77.0397 26.972C76.9684 27.1576 76.7828 27.3717 76.4545 27.6429C74.3704 29.3416 72.3862 30.1981 70.5306 30.1981C69.5313 30.1981 68.7462 30.0553 68.1467 29.7841C67.0476 29.2845 66.5051 28.528 66.5051 27.5002C66.5051 26.1584 67.433 25.1306 69.3029 24.4454C68.9318 24.2741 68.6891 24.0743 68.5892 23.8031C68.475 23.5461 68.4322 23.1322 68.4322 22.5612C68.4322 21.9902 68.7034 21.3907 69.2316 20.7483C69.7597 20.106 70.4163 19.5778 71.1872 19.1781C72.9001 18.2503 74.4418 17.7935 75.7836 17.7935C76.1119 17.7935 76.4259 17.8649 76.7685 18.0219C77.1111 18.1789 77.2681 18.393 77.2681 18.6785Z" fill="#292F36"/>
<path d="M110.585 8.74326H110.77C110.828 8.74326 110.87 8.74326 110.885 8.75753C110.899 8.7718 110.913 8.77181 110.942 8.78608C110.97 8.78608 110.985 8.80035 111.013 8.8289C111.056 8.87173 111.127 8.91455 111.213 8.95737C111.327 9.04302 111.384 9.14294 111.384 9.25714C111.384 9.37134 111.27 9.614 111.042 9.98514C110.813 10.3563 110.228 11.2556 109.272 12.7116C107.088 16.0518 105.132 19.1637 103.405 22.0186C100.421 26.9861 98.9083 29.4842 98.8798 29.5127C98.8512 29.5413 98.8369 29.5698 98.8226 29.5984C98.8084 29.6555 98.7798 29.684 98.7084 29.684L98.5086 29.6412L98.1089 29.7411L97.8805 29.6983L97.6379 29.7411H97.5522L96.7386 29.8553C96.2532 29.8553 96.0106 29.684 96.0106 29.3557C96.0106 29.213 96.0534 29.0417 96.139 28.8418C96.4388 28.1281 97.9662 25.5444 100.707 21.0622C98.9083 21.105 97.124 21.1336 95.3682 21.1336L92.2278 21.1193C91.7139 21.9472 91.0002 23.1177 90.1009 24.6451C88.1596 27.9711 87.1318 29.6412 87.0033 29.6697C86.8749 29.6983 86.7749 29.7268 86.6893 29.7268C86.6036 29.7268 86.5323 29.684 86.4752 29.5841C86.4038 29.4985 86.361 29.4413 86.3324 29.4413C86.3039 29.4413 86.261 29.4556 86.1754 29.4984C86.104 29.5413 85.9898 29.5555 85.8328 29.5555L85.4902 29.5413L85.3618 29.4556C85.3475 29.4556 85.3332 29.4699 85.3189 29.4984C85.3047 29.527 85.2618 29.5413 85.2047 29.5413C84.7908 29.5413 84.5767 29.37 84.5767 29.0131C84.5767 28.7847 84.6623 28.4707 84.8193 28.0853C84.9906 27.6999 85.2047 27.2859 85.476 26.8434C85.7472 26.4009 86.4323 25.3303 87.56 23.6602C88.6734 21.99 89.2302 21.1478 89.2302 21.1336C89.0446 21.1193 88.8305 21.1193 88.5878 21.105C88.0882 21.105 87.7456 21.0907 87.5315 21.0479C86.9748 20.948 86.5894 20.4912 86.3895 19.6776C86.2753 19.2779 86.2325 19.0209 86.2468 18.8925C86.2468 18.6355 86.361 18.4928 86.5894 18.4928L86.9748 18.5927C87.1746 18.607 87.6314 18.6213 88.3737 18.6641C89.116 18.7069 89.6441 18.7212 89.9724 18.7212L90.8004 18.6926C92.0708 16.7085 93.5839 14.4531 95.3539 11.9408C94.0692 12.9971 92.6418 13.5252 91.0716 13.5252C90.3293 13.5252 89.6869 13.3539 89.1588 12.9971C88.6163 12.6402 88.3594 12.1834 88.3594 11.641C88.3594 11.0986 88.5593 10.6703 88.9732 10.342C89.3872 10.028 89.7726 9.87094 90.1437 9.87094C90.5149 9.87094 90.7004 9.92804 90.7004 10.0423C90.7004 10.0851 90.6433 10.1279 90.5434 10.1707C90.4435 10.2278 90.3864 10.2707 90.3864 10.3135C90.3864 10.4705 90.5577 10.6132 90.9003 10.7274C91.2429 10.8416 91.6283 10.913 92.0565 10.913C92.4847 10.913 92.9986 10.7845 93.6267 10.5419C94.2548 10.2992 94.8971 9.97087 95.568 9.58545C96.5102 9.04302 97.2524 8.58623 97.7949 8.22937C98.1089 8.07235 98.3944 8.00098 98.6799 8.00098C98.9654 8.00098 99.151 8.02953 99.2794 8.1009C99.4079 8.158 99.4935 8.22937 99.5506 8.28647C99.6077 8.34357 99.6791 8.42922 99.7362 8.52914C99.8076 8.62906 99.8647 8.71471 99.9361 8.75753C99.9932 8.81463 100.036 8.87173 100.036 8.9431C100.036 9.01447 99.9932 9.11439 99.9218 9.27141C99.8504 9.41416 99.4793 10.0137 98.8084 11.0558C98.1375 12.0978 97.2667 13.4253 96.2104 15.0383C95.1541 16.6514 94.3833 17.8362 93.8979 18.607C96.5102 18.607 99.3223 18.5642 102.348 18.4642C106.031 12.6545 107.973 9.614 108.172 9.32851C108.372 9.04302 108.558 8.85745 108.729 8.7718C108.9 8.68616 109.1 8.64333 109.343 8.64333L110.585 8.74326Z" fill="#292F36"/>
<path d="M115.353 18.4784C115.652 18.4784 115.952 18.6069 116.252 18.8781C116.566 19.1493 116.709 19.549 116.709 20.0914C116.709 20.6338 116.523 21.3333 116.138 22.204C115.752 23.0605 115.238 23.9455 114.567 24.8448C113.911 25.7299 113.169 26.5721 112.383 27.3572C111.584 28.1423 110.728 28.7846 109.814 29.2842C108.886 29.7838 108.058 30.0408 107.302 30.0408C106.545 30.0408 105.946 29.7981 105.489 29.327C105.032 28.856 104.804 28.1993 104.804 27.3572C104.804 26.515 105.018 25.5728 105.432 24.5593C105.846 23.5316 106.374 22.6323 107.031 21.8472C107.687 21.0621 108.387 20.3626 109.157 19.7345C110.742 18.4498 112.141 17.8218 113.34 17.8218C113.882 17.8218 114.282 17.9502 114.553 18.2215C114.653 18.3071 114.696 18.3927 114.696 18.4498V18.5355C114.853 18.4784 115.067 18.4784 115.353 18.4784ZM113.882 20.4197H113.782C113.44 20.4197 113.268 20.1771 113.268 19.6775C112.555 19.9058 111.813 20.3198 111.027 20.9051C110.242 21.4903 109.543 22.1898 108.929 22.9891C107.673 24.5879 107.045 25.944 107.031 27.0431C107.031 27.5855 107.23 27.8568 107.63 27.8568C108.03 27.8568 108.629 27.5855 109.414 27.0717C110.199 26.5578 110.985 25.8012 111.77 24.8163C112.541 23.8456 113.126 22.9891 113.511 22.2754C113.897 21.5617 114.096 21.0764 114.096 20.8051C114.082 20.5482 114.011 20.4197 113.882 20.4197Z" fill="#292F36"/>
<path d="M116.395 29.7128L115.681 29.6843H115.424C115.324 29.6557 115.224 29.5986 115.11 29.513C114.996 29.4273 114.91 29.356 114.853 29.3274C114.796 29.2989 114.767 29.2132 114.767 29.1133C114.767 29.0134 114.81 28.8278 114.882 28.5851C116.78 24.4027 118.621 21.0482 120.406 18.5501C120.606 18.2789 120.92 18.0648 121.348 17.922C121.776 17.7793 122.204 17.7079 122.618 17.7079C122.861 17.7079 122.989 17.8935 122.989 18.2789C122.989 18.3931 122.947 18.5359 122.875 18.7072C122.804 18.8927 122.604 19.1782 122.29 19.5922C121.976 20.0061 121.605 20.4772 121.177 20.9911C120.748 21.505 120.506 21.819 120.449 21.9046C121.79 20.52 122.989 19.4923 124.074 18.8071C125.159 18.1362 125.93 17.7936 126.415 17.7936C126.901 17.7936 127.272 17.9363 127.529 18.2075C127.786 18.4788 127.914 18.7785 127.914 19.0926C127.914 19.4066 127.886 19.6778 127.843 19.8777C127.8 20.0918 127.714 20.3059 127.6 20.5343C127.486 20.7627 127.386 20.9625 127.3 21.1195C127.215 21.2766 127.072 21.4907 126.886 21.7476C126.687 22.0046 126.558 22.1901 126.487 22.2901C126.415 22.39 126.258 22.5755 126.03 22.8468C125.802 23.118 125.673 23.275 125.659 23.3035C125.93 23.0323 126.315 22.6326 126.801 22.0902C127.286 21.5478 127.7 21.1053 128.043 20.7484C128.385 20.3915 128.799 19.9776 129.313 19.5208C129.827 19.064 130.298 18.6929 130.726 18.4217C131.783 17.765 132.853 17.4224 133.938 17.4224C134.309 17.4224 134.623 17.5366 134.88 17.7793C135.137 18.022 135.266 18.2932 135.266 18.6215C135.266 18.9498 134.866 19.7349 134.081 20.9625C133.296 22.1901 132.496 23.432 131.711 24.6739C130.926 25.9158 130.526 26.7009 130.526 27.0292C130.526 27.4717 130.612 27.7429 130.769 27.8286C130.94 27.9142 131.14 27.9428 131.369 27.9285C131.597 27.9142 131.94 27.7572 132.354 27.4717C132.782 27.1862 133.153 26.9007 133.481 26.5867C134.024 26.1014 134.509 25.6303 134.98 25.1735C135.08 25.0879 135.18 25.045 135.308 25.045C135.494 25.045 135.608 25.1878 135.651 25.4733C135.694 25.7588 135.708 26.0443 135.708 26.3583C135.708 26.6723 135.68 26.8722 135.622 26.9864C135.337 27.5288 134.709 28.1997 133.752 28.9991C132.782 29.7842 131.854 30.1839 130.969 30.1839C130.855 30.1839 130.783 30.1839 130.741 30.1696C129.741 30.0697 129.042 29.7985 128.656 29.3417C128.271 28.8849 128.085 28.3425 128.085 27.7287C128.085 27.1149 128.3 26.344 128.728 25.459C129.156 24.574 129.613 23.7603 130.127 23.0466C130.641 22.3329 131.097 21.6763 131.526 21.091C131.954 20.5057 132.168 20.1917 132.168 20.1489C132.168 20.1061 132.125 20.0775 132.054 20.0775C131.754 20.0775 131.083 20.5628 130.027 21.5478C128.242 23.2179 126.701 24.8309 125.402 26.3726C125.059 26.7865 124.246 27.8143 122.975 29.4844C122.832 29.6843 122.59 29.7842 122.276 29.7842C121.962 29.7842 121.633 29.7271 121.291 29.5986C120.948 29.4701 120.777 29.3131 120.777 29.1276C120.777 29.0276 121.548 27.6573 123.104 25.0165C124.66 22.3757 125.43 20.934 125.43 20.7056C125.43 20.4629 125.288 20.3487 125.002 20.3487C124.717 20.3487 124.117 20.777 123.218 21.6334C120.748 23.9887 118.836 26.344 117.48 28.6708C117.394 28.8135 117.223 29.0276 116.966 29.3131C116.709 29.5986 116.48 29.7128 116.395 29.7128Z" fill="#292F36"/>
<path d="M144.701 18.6785C144.701 19.3209 144.444 19.8919 143.916 20.3772C143.388 20.8625 142.802 21.1052 142.132 21.1052C141.917 21.1052 141.775 21.0481 141.703 20.9482C141.632 20.8483 141.603 20.7055 141.603 20.5485C141.603 20.3915 141.618 20.2202 141.66 20.0631C141.304 20.1773 140.918 20.3629 140.49 20.6056C140.062 20.8482 139.534 21.2051 138.906 21.6904C138.277 22.1758 137.963 22.5184 137.963 22.761C137.963 22.8324 138.078 22.8752 138.306 22.8752C138.534 22.8752 138.891 22.7896 139.362 22.6326C139.833 22.4755 140.176 22.3899 140.362 22.3899C140.547 22.3899 140.676 22.4042 140.733 22.4184C140.861 22.4898 140.99 22.6326 141.147 22.861C141.289 23.0894 141.361 23.2749 141.361 23.4034C141.361 23.5319 141.232 23.7032 140.975 23.9173C140.718 24.1314 140.433 24.2884 140.119 24.4026C139.791 24.5168 139.576 24.6025 139.476 24.6595C137.421 25.8158 136.393 26.6009 136.393 27.0291C136.393 27.7857 137.036 28.1711 138.335 28.1711C139.162 28.1711 140.005 27.9141 140.833 27.386C141.546 26.9435 142.189 26.4867 142.76 26.0156C143.331 25.5588 143.687 25.2734 143.845 25.1592C144.002 25.045 144.116 25.0021 144.187 25.0021C144.444 25.0021 144.573 25.2876 144.573 25.8586C144.573 26.4296 144.544 26.8007 144.473 26.972C144.401 27.1576 144.216 27.3717 143.887 27.6429C141.803 29.3416 139.819 30.1981 137.963 30.1981C136.964 30.1981 136.179 30.0553 135.58 29.7841C134.48 29.2845 133.938 28.528 133.938 27.5002C133.938 26.1584 134.866 25.1306 136.736 24.4454C136.365 24.2741 136.122 24.0743 136.022 23.8031C135.908 23.5461 135.865 23.1322 135.865 22.5612C135.865 21.9902 136.136 21.3907 136.664 20.7483C137.193 20.106 137.849 19.5778 138.62 19.1781C140.333 18.2503 141.875 17.7935 143.216 17.7935C143.545 17.7935 143.859 17.8649 144.201 18.0219C144.544 18.1789 144.701 18.393 144.701 18.6785Z" fill="#292F36"/>
<path d="M0 33.6665C3.7542 35.2367 7.57977 36.4501 11.4767 37.3779C15.3451 38.3486 19.2849 39.0338 23.2247 39.462C25.1946 39.7332 27.1787 39.7618 29.1343 39.9473C31.1185 39.9616 33.0884 40.1186 35.0583 40.0044L38.0131 39.9331C38.998 39.9188 39.983 39.7903 40.9679 39.7332C41.9529 39.6476 42.9378 39.6047 43.9085 39.4763L46.8347 39.0623C50.7602 38.6341 54.5715 37.7205 58.3686 36.6214C62.2084 35.565 65.8342 34.1661 69.674 32.7101C73.5995 31.2684 77.8533 30.3263 82.1642 30.7831C84.2911 31.0543 86.4323 31.7395 88.1738 32.9956C89.9296 34.2375 91.1857 36.0076 91.9851 37.8632C90.786 36.2074 89.2872 34.8513 87.56 34.0091C85.8328 33.1669 83.9343 32.8243 82.05 32.8814C78.2387 32.9385 74.4845 34.209 70.9587 35.8077C67.3758 37.5778 63.4931 39.1765 59.5819 40.504C55.6421 41.7745 51.5739 42.788 47.4485 43.3018C39.2407 44.3867 30.833 44.401 22.7251 42.7594C18.6568 42.0171 14.6885 40.8609 10.8486 39.3906C7.03733 37.8632 3.31169 36.0789 0 33.6665Z" fill="#292F36"/>
<path d="M136.507 9.89958C133.324 8.5435 130.084 7.48718 126.801 6.65926C123.532 5.78851 120.22 5.17471 116.894 4.74648C115.238 4.48953 113.554 4.43244 111.898 4.23259C110.228 4.18977 108.572 4.01847 106.902 4.08985C106.074 4.10412 105.232 4.10412 104.404 4.08985C103.576 4.08985 102.734 4.17549 101.906 4.20404C101.078 4.26114 100.236 4.27542 99.4079 4.36106L96.9242 4.66083C93.5982 4.93204 90.3722 5.61722 87.1461 6.45942C83.8773 7.24452 80.7797 8.35793 77.4823 9.47135C74.0992 10.599 70.4306 11.2842 66.7478 10.7703C64.9349 10.4706 63.1078 9.82821 61.6661 8.68624C60.1958 7.55856 59.1966 6.01691 58.5828 4.40388C59.5963 5.81706 60.8524 6.9733 62.2942 7.68703C63.7359 8.40076 65.3203 8.70052 66.9048 8.68624C70.1023 8.68624 73.2713 7.65848 76.2689 6.37377C79.3237 4.91777 82.6782 3.63306 86.0184 2.57675C89.3872 1.56325 92.8987 0.792427 96.4103 0.42129C103.419 -0.320986 110.585 -0.149691 117.451 1.47761C120.891 2.20561 124.246 3.31902 127.457 4.68938C130.683 6.08828 133.795 7.71558 136.507 9.89958Z" fill="#292F36"/>
</svg>
