<svg width="44" height="44" viewBox="0 0 44 44" fill="none" xmlns="http://www.w3.org/2000/svg">
<path d="M0.62085 10.6208C0.62085 5.098 5.098 0.62085 10.6209 0.62085H33.872C39.3949 0.62085 43.872 5.098 43.872 10.6209V33.872C43.872 39.3949 39.3949 43.872 33.872 43.872H10.6208C5.098 43.872 0.62085 39.3949 0.62085 33.872V10.6208Z" fill="#001E36"/>
<path d="M14.1782 21.3359H15.3237C16.3944 21.3359 17.1955 21.1263 17.7271 20.707C18.2586 20.2803 18.5244 19.6626 18.5244 18.854C18.5244 18.0379 18.2998 17.4352 17.8506 17.0459C17.4089 16.6566 16.7126 16.4619 15.7617 16.4619H14.1782V21.3359ZM22.0396 18.7305C22.0396 20.4974 21.4855 21.8488 20.3774 22.7847C19.2769 23.7205 17.7083 24.1885 15.6719 24.1885H14.1782V30.0283H10.6968V13.6094H15.9414C17.9329 13.6094 19.4453 14.0399 20.4785 14.9009C21.5192 15.7544 22.0396 17.0309 22.0396 18.7305ZM33.6294 26.2998C33.6294 27.5876 33.1802 28.5684 32.2817 29.2422C31.3908 29.916 30.0544 30.2529 28.2725 30.2529C27.359 30.2529 26.5804 30.1893 25.9365 30.062C25.2926 29.9422 24.6899 29.7625 24.1284 29.5229V26.6929C24.7648 26.9924 25.4798 27.2432 26.2734 27.4453C27.0745 27.6475 27.7783 27.7485 28.3848 27.7485C29.6276 27.7485 30.249 27.3892 30.249 26.6704C30.249 26.4009 30.1667 26.1838 30.002 26.019C29.8372 25.8468 29.5527 25.6559 29.1484 25.4463C28.7441 25.2292 28.2051 24.9784 27.5312 24.6938C26.5654 24.2896 25.8542 23.9152 25.3975 23.5708C24.9482 23.2264 24.6188 22.8333 24.4092 22.3916C24.207 21.9424 24.106 21.3921 24.106 20.7407C24.106 19.6252 24.5365 18.7642 25.3975 18.1577C26.266 17.5438 27.4938 17.2368 29.0811 17.2368C30.5934 17.2368 32.0646 17.5662 33.4946 18.2251L32.4614 20.6958C31.8325 20.4263 31.2448 20.2054 30.6982 20.0332C30.1517 19.861 29.5939 19.7749 29.0249 19.7749C28.0142 19.7749 27.5088 20.0482 27.5088 20.5947C27.5088 20.9017 27.6698 21.1675 27.9917 21.3921C28.3211 21.6167 29.0361 21.9499 30.1367 22.3916C31.1175 22.7884 31.8363 23.159 32.293 23.5034C32.7497 23.8478 33.0866 24.2446 33.3037 24.6938C33.5208 25.1431 33.6294 25.6784 33.6294 26.2998Z" fill="#30A8FF"/>
</svg>
