<svg width="44" height="40" viewBox="0 0 44 40" fill="none" xmlns="http://www.w3.org/2000/svg">
<path d="M17.3029 3.45027C18.9016 -0.931336 25.0984 -0.931339 26.6971 3.45026L28.659 8.82726C29.379 10.8005 31.2555 12.1134 33.3561 12.1134H38.3547C43.3373 12.1134 45.2542 18.6047 41.0708 21.3114L38.0622 23.2579C36.1037 24.5251 35.2816 26.9783 36.0812 29.1697L37.4582 32.9436C39.1024 37.4501 34.0725 41.4612 30.0449 38.8554L24.7161 35.4076C23.0633 34.3382 20.9367 34.3382 19.2839 35.4076L13.9551 38.8554C9.9275 41.4612 4.8976 37.4501 6.54183 32.9436L7.91879 29.1697C8.71836 26.9783 7.89633 24.5251 5.93778 23.2579L2.9292 21.3114C-1.25417 18.6047 0.662667 12.1134 5.6453 12.1134H10.6439C12.7445 12.1134 14.621 10.8005 15.341 8.82726L17.3029 3.45027Z" fill="#FFC226"/>
</svg>
