<svg width="253" height="51" viewBox="0 0 253 51" fill="none" xmlns="http://www.w3.org/2000/svg">
<path d="M22.6468 8.78096C23.5449 6.01703 27.4551 6.01703 28.3532 8.78096L30.5516 15.5469C30.9532 16.783 32.1051 17.6199 33.4047 17.6199H40.5189C43.4251 17.6199 44.6334 21.3387 42.2822 23.0469L36.5268 27.2285C35.4753 27.9924 35.0353 29.3465 35.437 30.5826L37.6354 37.3486C38.5334 40.1125 35.37 42.4109 33.0188 40.7027L27.2634 36.5211C26.2119 35.7572 24.7881 35.7572 23.7366 36.5211L17.9812 40.7027C15.63 42.4109 12.4666 40.1125 13.3646 37.3486L15.563 30.5826C15.9647 29.3465 15.5247 27.9924 14.4732 27.2285L8.71775 23.0469C6.36661 21.3387 7.57494 17.6199 10.4811 17.6199H17.5953C18.8949 17.6199 20.0468 16.783 20.4484 15.5469L22.6468 8.78096Z" fill="#FFC226"/>
<path d="M123.647 8.78096C124.545 6.01703 128.455 6.01703 129.353 8.78096L131.552 15.5469C131.953 16.783 133.105 17.6199 134.405 17.6199H141.519C144.425 17.6199 145.633 21.3387 143.282 23.0469L137.527 27.2285C136.475 27.9924 136.035 29.3465 136.437 30.5826L138.635 37.3486C139.533 40.1125 136.37 42.4109 134.019 40.7027L128.263 36.5211C127.212 35.7572 125.788 35.7572 124.737 36.5211L118.981 40.7027C116.63 42.4109 113.467 40.1125 114.365 37.3486L116.563 30.5826C116.965 29.3465 116.525 27.9924 115.473 27.2285L109.718 23.0469C107.367 21.3387 108.575 17.6199 111.481 17.6199H118.595C119.895 17.6199 121.047 16.783 121.448 15.5469L123.647 8.78096Z" fill="#FFC226"/>
<path d="M225.122 8.93547C225.871 6.63219 229.129 6.63219 229.878 8.93547L232.076 15.7014C232.545 17.1435 233.888 18.1199 235.405 18.1199H242.519C244.941 18.1199 245.948 21.2189 243.988 22.6424L238.233 26.824C237.006 27.7153 236.493 29.295 236.961 30.7371L239.16 37.5031C239.908 39.8064 237.272 41.7217 235.313 40.2982L229.557 36.1166C228.331 35.2253 226.669 35.2253 225.443 36.1166L219.687 40.2982C217.728 41.7217 215.092 39.8064 215.84 37.5031L218.039 30.7371C218.507 29.295 217.994 27.7153 216.767 26.824L211.012 22.6424C209.052 21.2189 210.059 18.1199 212.481 18.1199H219.595C221.112 18.1199 222.455 17.1435 222.924 15.7014L225.122 8.93547Z" stroke="#FFC226"/>
<path d="M73.1415 8.97323C74.029 6.18731 77.971 6.18731 78.8585 8.97323L80.9473 15.5304C81.3437 16.7749 82.4997 17.6199 83.8057 17.6199H90.6896C93.5814 17.6199 94.7991 21.3084 92.4758 23.0302L86.8051 27.2326C85.7744 27.9964 85.3434 29.3311 85.7328 30.5534L87.8746 37.277C88.7584 40.0514 85.5693 42.3315 83.2299 40.5978L77.7862 36.5636C76.7252 35.7774 75.2748 35.7774 74.2138 36.5636L68.7701 40.5978C66.4307 42.3315 63.2416 40.0514 64.1254 37.277L66.2672 30.5534C66.6566 29.3311 66.2256 27.9964 65.1949 27.2326L59.5242 23.0302C57.2009 21.3084 58.4186 17.6199 61.3104 17.6199H68.1943C69.5003 17.6199 70.6563 16.7749 71.0527 15.5304L73.1415 8.97323Z" fill="#FFC226"/>
<path d="M174.142 8.97323C175.029 6.18731 178.971 6.18731 179.858 8.97323L181.947 15.5304C182.344 16.7749 183.5 17.6199 184.806 17.6199H191.69C194.581 17.6199 195.799 21.3084 193.476 23.0302L187.805 27.2326C186.774 27.9964 186.343 29.3311 186.733 30.5534L188.875 37.277C189.758 40.0514 186.569 42.3315 184.23 40.5978L178.786 36.5636C177.725 35.7774 176.275 35.7774 175.214 36.5636L169.77 40.5978C167.431 42.3315 164.242 40.0514 165.125 37.277L167.267 30.5534C167.657 29.3311 167.226 27.9964 166.195 27.2326L160.524 23.0302C158.201 21.3084 159.419 17.6199 162.31 17.6199H169.194C170.5 17.6199 171.656 16.7749 172.053 15.5304L174.142 8.97323Z" fill="#FFC226"/>
<mask id="mask0_1_170" style="mask-type:alpha" maskUnits="userSpaceOnUse" x="209" y="6" width="37" height="36">
<path d="M224.647 8.78096C225.545 6.01703 229.455 6.01703 230.353 8.78096L232.552 15.5469C232.953 16.783 234.105 17.6199 235.405 17.6199H242.519C245.425 17.6199 246.633 21.3387 244.282 23.0469L238.527 27.2285C237.475 27.9924 237.035 29.3465 237.437 30.5826L239.635 37.3486C240.533 40.1125 237.37 42.4109 235.019 40.7027L229.263 36.5211C228.212 35.7572 226.788 35.7572 225.737 36.5211L219.981 40.7027C217.63 42.4109 214.467 40.1125 215.365 37.3486L217.563 30.5826C217.965 29.3465 217.525 27.9924 216.473 27.2285L210.718 23.0469C208.367 21.3387 209.575 17.6199 212.481 17.6199H219.595C220.895 17.6199 222.047 16.783 222.448 15.5469L224.647 8.78096Z" fill="#FFC226"/>
</mask>
<g mask="url(#mask0_1_170)">
<path d="M227 1H207V47H227V1Z" fill="#FFC226"/>
</g>
</svg>
