<svg width="46" height="44" viewBox="0 0 46 44" fill="none" xmlns="http://www.w3.org/2000/svg">
<path d="M0.280029 9.99999C0.280029 4.47715 4.75718 0 10.28 0H35.5496C41.0724 0 45.5496 4.47715 45.5496 10V33.2512C45.5496 38.774 41.0724 43.2512 35.5496 43.2512H10.28C4.75719 43.2512 0.280029 38.774 0.280029 33.2512V9.99999Z" fill="#88A2FF"/>
<path d="M25 14H12C10.8954 14 10 14.8954 10 16V26C10 27.1046 10.8954 28 12 28H25C26.1046 28 27 27.1046 27 26V16C27 14.8954 26.1046 14 25 14Z" fill="#365BDD"/>
<path d="M28.998 22.2857C28.4894 21.8853 28.4894 21.1147 28.998 20.7143L34.6314 16.2791C35.2874 15.7627 36.25 16.2299 36.25 17.0648V25.9352C36.25 26.7701 35.2874 27.2373 34.6314 26.7209L28.998 22.2857Z" fill="#365BDD"/>
</svg>
