<svg width="44" height="44" viewBox="0 0 44 44" fill="none" xmlns="http://www.w3.org/2000/svg">
<path d="M0.62085 10.6208C0.62085 5.098 5.098 0.62085 10.6209 0.62085H33.872C39.3949 0.62085 43.872 5.098 43.872 10.6209V33.872C43.872 39.3949 39.3949 43.872 33.872 43.872H10.6208C5.098 43.872 0.62085 39.3949 0.62085 33.872V10.6208Z" fill="#470137"/>
<path d="M22.3398 30H18.8828L15.5625 24.5996L12.2422 30H9L13.7363 22.6367L9.30273 15.7227H12.6426L15.7188 20.8594L18.7363 15.7227H21.998L17.5156 22.8027L22.3398 30ZM27.3594 30.1953C26.0768 30.1953 25.0677 29.6973 24.332 28.7012C23.6029 27.7051 23.2383 26.3249 23.2383 24.5605C23.2383 22.7702 23.6094 21.377 24.3516 20.3809C25.1003 19.3783 26.1289 18.877 27.4375 18.877C28.8112 18.877 29.8594 19.4108 30.582 20.4785H30.6797C30.5299 19.6647 30.4551 18.9388 30.4551 18.3008V14.8047H33.4434V30H31.1582L30.582 28.584H30.4551C29.778 29.6582 28.7461 30.1953 27.3594 30.1953ZM28.4043 27.8223C29.166 27.8223 29.7227 27.6009 30.0742 27.1582C30.4323 26.7155 30.6276 25.9635 30.6602 24.9023V24.5801C30.6602 23.4082 30.4779 22.5684 30.1133 22.0605C29.7552 21.5527 29.1693 21.2988 28.3555 21.2988C27.6914 21.2988 27.1738 21.582 26.8027 22.1484C26.4382 22.7083 26.2559 23.5254 26.2559 24.5996C26.2559 25.6738 26.4414 26.4811 26.8125 27.0215C27.1836 27.5553 27.7142 27.8223 28.4043 27.8223Z" fill="#FF61F6"/>
</svg>
